HIERARCHY
ROOT Hip
{
	OFFSET	0.00  0.00  0.00 
	CHANNELS 6 Xposition Yposition Zposition Xrotation Zrotation Yrotation
	JOINT Abdomen
	{
		OFFSET	0.000000 0.000000 0.000000
		CHANNELS 3 Xrotation Zrotation Yrotation
		JOINT Chest
		{
			OFFSET	0.000000 5.018152 -1.882229
			CHANNELS 3 Xrotation Zrotation Yrotation
			JOINT neckDummy
			{
				OFFSET	0.000000 8.316447 0.784897
				CHANNELS 3 Xrotation Yrotation Zrotation
				JOINT Neck
				{
					OFFSET	0.000000 2.280413 -0.392801
					CHANNELS 3 Xrotation Zrotation Yrotation
					JOINT Head
					{
						OFFSET	0.000000 3.496879 0.529469
						CHANNELS 3 Xrotation Zrotation Yrotation
						End Site
						{
							OFFSET 0.000000 10.353750 0.000000
						}
					}
				}
			}
			JOINT Left Collar
			{
				OFFSET	0.599237 8.316447 0.784897
				CHANNELS 3 Yrotation Zrotation Xrotation
				JOINT Left Shoulder
				{
					OFFSET	6.421198 0.010146 -0.332128
					CHANNELS 3 Zrotation Yrotation Xrotation
					JOINT Left Forearm
					{
						OFFSET	10.552783 0.025574 0.125508
						CHANNELS 3 Yrotation Zrotation Xrotation
						JOINT Left Hand
						{
							OFFSET	11.035963 0.319619 0.041520
							CHANNELS 3 Zrotation Yrotation Xrotation
							End Site
							{
								OFFSET 10.353753 0.000000 0.000000
							}
						}
					}
				}
			}
			JOINT Right Collar
			{
				OFFSET	-0.599237 8.316447 0.784897
				CHANNELS 3 Yrotation Zrotation Xrotation
				JOINT Right Shoulder
				{
					OFFSET	-6.421198 0.010146 -0.332128
					CHANNELS 3 Zrotation Yrotation Xrotation
					JOINT Right Forearm
					{
						OFFSET	-10.552783 0.025574 0.125508
						CHANNELS 3 Yrotation Zrotation Xrotation
						JOINT Right Hand
						{
							OFFSET	-11.035963 0.319619 0.041520
							CHANNELS 3 Zrotation Yrotation Xrotation
							End Site
							{
								OFFSET -10.353753 0.000000 0.000000
							}
						}
					}
				}
			}
		}
	}
	JOINT Left Thigh
	{
		OFFSET	4.500466 -6.400484 -1.832696
		CHANNELS 3 Xrotation Zrotation Yrotation
		JOINT Left Shin
		{
			OFFSET	-1.359117 -18.918689 1.179887
			CHANNELS 3 Xrotation Zrotation Yrotation
			JOINT Left Foot
			{
				OFFSET	-0.652380 -17.215187 -0.312137
				CHANNELS 3 Xrotation Yrotation Zrotation
				End Site
				{
					OFFSET 0.000000 0.000000 10.353752
				}
			}
		}
	}
	JOINT Right Thigh
	{
		OFFSET	-4.500466 -6.400484 -1.832696
		CHANNELS 3 Xrotation Zrotation Yrotation
		JOINT Right Shin
		{
			OFFSET	1.359117 -18.918689 1.179887
			CHANNELS 3 Xrotation Zrotation Yrotation
			JOINT Right Foot
			{
				OFFSET	0.652380 -17.215187 -0.312137
				CHANNELS 3 Xrotation Yrotation Zrotation
				End Site
				{
					OFFSET 0.000000 0.000000 10.353752
				}
			}
		}
	}
}
MOTION
Frames:     11
Frame Time: 0.041667
-0.262932 37.223860 6.544226 12.102737 -4.286621 -1.065967 -2.498600 2.778320 -0.560357 -1.561189 2.400703 -5.395153 0.000000 0.000000 0.000000 0.354411 0.068959 -0.010408 0.488041 -0.359712 2.009510 -10.851883 -0.428989 1.644191 -52.257088 -20.334448 -0.136917 -30.682886 -23.820372 8.506333 -10.850268 -16.527628 2.246982 -5.923732 -0.085891 -0.296993 63.651012 -30.371225 -17.127476 18.391708 13.837007 -2.739503 2.798687 -0.278525 0.344704 -2.950031 5.908476 -0.971956 57.298443 -4.824991 -5.211724 3.453298 8.847184 -2.210073 -52.481464 0.178695 -5.718513 34.893562 4.558247 2.178801 -22.526503 3.949666 -5.188385 
-0.372368 35.626738 7.068313 13.285886 -4.223847 -1.352314 -2.282897 2.244620 -0.245594 -1.873192 1.675060 -4.263394 0.000000 0.000000 0.000000 -0.114214 0.280273 -0.972906 0.304130 -0.379934 1.822851 -9.332782 -0.559071 1.527694 -57.104488 -18.099991 7.473202 -30.580906 -20.385334 8.453499 -8.886398 -14.817496 1.132995 -7.993810 -0.812813 -1.373051 59.005505 -27.231203 -14.828712 21.479176 18.311317 -2.859134 3.576821 1.471161 0.049102 -3.779566 6.028797 -2.724882 59.203350 -5.181900 -6.123336 4.846070 13.404840 -5.507761 -57.306252 -0.311266 -7.097466 53.799683 4.484859 4.362473 -29.335672 1.142179 -7.085092 
-0.460523 35.382682 7.372704 14.602710 -3.570803 -1.540542 -2.494828 1.948931 0.164279 -1.849892 0.693533 -3.645723 0.000000 0.000000 0.000000 -0.072348 0.380945 -0.099452 0.051963 -0.634924 1.115366 -5.758607 -1.207887 0.789202 -59.050106 -14.236796 9.906519 -31.583670 -18.718834 7.863107 -6.631706 -12.228351 -0.721930 -8.124586 -0.609455 -2.209112 57.766422 -21.785557 -13.787657 26.089760 21.045567 -4.665820 3.338316 3.618759 -2.003764 -16.634762 6.304996 -4.061486 71.747910 -4.694118 -7.228093 3.161200 13.890037 -8.120192 -52.918793 -0.568263 -6.639792 56.804420 4.621872 4.373775 -20.142675 -1.761847 -8.391781 
-0.514831 36.469597 7.416149 15.757496 -2.591798 -1.717875 -3.399376 1.552385 0.166261 -1.109358 0.208820 -2.225608 0.000000 0.000000 0.000000 -0.429217 0.166441 -0.622827 -0.698977 -1.227212 0.160156 -2.947228 -1.562815 -0.035508 -57.272030 -9.666328 8.842230 -32.195946 -17.598017 7.356539 -4.127339 -9.330716 -1.961483 -7.885341 0.245970 -3.167668 59.332008 -16.342045 -13.958699 31.505426 22.427948 -6.872939 3.355278 5.368496 -2.815665 -29.610790 6.484191 -4.720816 80.567406 -4.545702 -8.017900 0.707036 13.517097 -8.561403 -46.420837 -1.399724 -5.688501 56.635365 4.225399 4.499152 -23.212420 -2.865798 -9.553002 
-0.545036 37.903563 7.218810 16.239496 -1.943896 -1.941387 -3.878301 1.570324 0.148113 -0.398970 -0.366982 -0.571566 0.000000 0.000000 0.000000 -0.625950 0.050134 -0.259711 -1.566047 -1.955380 -0.066030 0.901621 -2.319452 -0.598808 -54.649075 -4.746694 7.378012 -31.115446 -16.132999 7.025891 -1.792578 -6.618240 -2.712306 -5.914856 0.261313 -3.805835 62.407909 -9.854125 -14.199924 36.586391 24.198780 -8.432999 3.309205 7.188964 -2.951660 -41.190247 6.842443 -4.959043 84.585258 -4.035119 -9.136867 0.703834 13.869551 -7.861436 -38.533932 -1.454244 -4.999684 51.686718 4.299287 4.252038 -21.167721 -3.521984 -9.266696 
-0.507411 39.508183 6.874156 16.563305 -1.077809 -2.258742 -4.848843 0.805195 0.177064 -0.287074 -0.786228 0.649720 0.000000 0.000000 0.000000 -0.574548 -0.143346 0.052501 -2.028116 -1.378962 -0.046850 4.544874 -2.866763 -0.784970 -52.829937 1.044894 5.960332 -29.064131 -13.759974 6.495131 -0.835614 -5.207027 -2.258896 -1.758938 0.438757 -4.161538 64.969261 -2.825962 -13.449359 39.491467 25.625338 -9.888553 4.042709 9.175395 -0.729942 -49.211296 6.666904 -4.912130 84.622704 -4.927446 -8.714154 -2.113181 12.124658 -3.116097 -30.775740 -2.504913 -3.789751 44.454750 4.300800 3.424980 -15.815802 -3.420052 -3.979433 
-0.414015 40.812353 6.538566 16.666084 -0.389584 -2.368885 -5.879193 -0.468378 0.036932 -0.430155 -1.207993 1.688480 0.000000 0.000000 0.000000 -0.391638 -0.234702 0.129103 -1.974664 -0.513585 0.061577 6.809632 -3.241264 -0.676252 -52.488403 7.014669 4.943411 -26.348730 -11.602563 4.992875 0.140835 -2.280846 -1.058706 2.047404 0.349855 -4.082922 66.216209 3.500523 -11.600103 40.667461 26.979395 -9.997774 5.084644 11.219772 -0.200797 -55.523003 6.494227 -3.858971 80.740936 -5.250207 -8.442493 -3.684402 8.754044 0.256421 -25.702631 -3.666849 -3.349580 39.478859 4.587522 3.102164 -8.711438 -1.171086 -2.723462 
-0.295246 41.352002 6.277274 16.938213 0.287644 -2.131821 -6.162965 -1.398717 -0.116273 -0.973395 -1.460475 2.541750 0.000000 0.000000 0.000000 -0.253011 -0.077605 0.111123 -1.381028 0.144955 -0.130050 7.952187 -3.936982 -0.567850 -53.408867 12.471984 1.777920 -22.781908 -9.636165 3.704408 -0.007043 -0.703090 -0.878924 4.781420 0.351619 -3.791761 64.914787 9.092228 -11.053142 40.298908 29.663443 -9.550466 6.694623 12.395131 1.465576 -58.023712 5.435680 -2.789587 70.692429 -5.048285 -7.001600 -5.539815 3.412902 1.390127 -22.415674 -4.179299 -3.156739 38.808693 4.252786 2.756142 -4.169989 0.641300 -3.317690 
-0.207102 41.374190 6.063268 16.633575 0.748180 -1.816644 -5.926704 -2.343279 -0.186837 -1.542493 -1.511046 3.762357 0.000000 0.000000 0.000000 -0.390954 -0.187667 -0.150894 -0.685956 0.610350 -1.204630 8.034966 -4.152733 -0.419287 -55.102139 17.194208 -0.779677 -19.070522 -8.110674 1.699138 0.175227 0.014134 -0.703095 6.634894 0.017069 -3.348194 62.128487 13.665141 -9.847918 37.978851 31.434887 -7.308928 7.982433 13.498812 1.849084 -57.542294 4.034386 -1.796029 57.273018 -5.175906 -5.567609 -7.358894 1.730865 2.567581 -18.345186 -4.634791 -3.146698 41.671535 3.735963 2.992999 -4.505457 0.769362 -3.134960 
-0.112205 40.918158 5.919358 16.067894 1.271201 -1.471914 -5.524611 -3.342029 -0.187604 -1.972139 -1.615744 5.067058 0.000000 0.000000 0.000000 -0.417027 0.061407 -0.672223 -0.416952 1.261510 -4.424921 6.918238 -3.213917 -0.431368 -57.480515 21.735014 -4.151714 -15.897912 -6.624373 0.626818 -0.459047 0.949563 -0.353380 7.736890 -0.073615 -2.642335 58.599773 17.343132 -8.703026 34.942467 32.562275 -5.359095 9.179729 15.055774 2.481632 -55.457611 2.809388 -0.999289 41.749378 -4.784473 -3.721107 -14.059877 0.274631 3.900190 -14.777449 -5.505910 -2.802422 48.549084 3.764698 3.563237 -7.108948 1.189088 -2.739799 
-0.028898 40.124584 5.912386 15.591124 1.546046 -0.955459 -4.595690 -3.903145 -0.408307 -2.198159 -1.630487 5.282159 0.000000 0.000000 0.000000 -0.254977 0.686362 -0.256366 -0.312789 1.492021 -6.236133 7.004802 -2.387726 -0.416353 -60.155388 25.089373 -7.133924 -14.137839 -5.390563 -0.230249 -1.356550 1.378026 -1.243678 9.798423 -0.099061 -1.674783 55.923298 19.957384 -5.889155 33.298168 31.760725 -4.302352 10.467882 15.714865 3.051448 -52.459488 1.569643 0.028442 25.520720 -3.964606 -2.334299 -17.706768 -1.315548 4.016344 -9.842357 -5.336066 -2.710831 51.578018 3.073621 3.498165 -8.746898 1.972697 -1.962844 
